<?xml version="1.0" encoding="UTF-8"?>
<svg width="31px" height="30px" viewBox="0 0 31 30" version="1.1" xmlns="http://www.w3.org/2000/svg" xmlns:xlink="http://www.w3.org/1999/xlink">
    <title>ico_yichang</title>
    <g id="页面-1" stroke="none" stroke-width="1" fill="none" fill-rule="evenodd">
        <g id="9-4图形编排说明和切图" transform="translate(-1188.000000, -183.000000)">
            <g id="ico_yichang" transform="translate(1188.416667, 183.000000)">
                <rect id="矩形" x="0" y="0" width="30" height="30"></rect>
                <circle id="椭圆形备份" fill="#F5583F" cx="15" cy="15" r="15"></circle>
                <path d="M16.0552049,7.94003389 L16.0552049,17.0449144 C16.0552049,17.5682372 15.630968,17.9924742 15.1076452,17.9924742 C14.5843224,17.9924742 14.1600855,17.5682372 14.1600855,17.0449144 L14.1600855,7.94003389 C14.1600855,7.4167111 14.5843224,6.99247416 15.1076452,6.99247416 C15.630968,6.99247416 16.0552049,7.4167111 16.0552049,7.94003389 Z" id="形状结合" stroke="#FFFFFF" stroke-width="0.4" fill="#FFFFFF"></path>
                <path d="M16.0552049,21.9406042 C16.0552049,22.4591443 15.6348451,22.8795042 15.1163049,22.8795042 L15.0989855,22.8795042 C14.5804453,22.8795042 14.1600855,22.4591443 14.1600855,21.9406042 C14.1600855,21.422064 14.5804453,21.0017042 15.0989855,21.0017042 L15.1163049,21.0017042 C15.6348451,21.0017042 16.0552049,21.422064 16.0552049,21.9406042 Z" id="FA227A82-1DC2-4AC2-B3E6-B5D1337DDAC7" stroke="#FFFFFF" stroke-width="0.6" fill="#FFFFFF"></path>
            </g>
        </g>
    </g>
</svg>