<?xml version="1.0" encoding="UTF-8"?>
<svg width="31px" height="30px" viewBox="0 0 31 30" version="1.1" xmlns="http://www.w3.org/2000/svg" xmlns:xlink="http://www.w3.org/1999/xlink">
    <title>ico_xunhuankaishi</title>
    <g id="页面-1" stroke="none" stroke-width="1" fill="none" fill-rule="evenodd">
        <g id="9-4图形编排说明和切图" transform="translate(-937.000000, -183.000000)">
            <g id="ico_xunhuankaishi" transform="translate(937.666667, 183.000000)">
                <rect id="矩形" x="0" y="0" width="30" height="30"></rect>
                <circle id="椭圆形备份" fill="#436CFF" cx="15" cy="15" r="15"></circle>
                <g id="刷新_refresh-one" transform="translate(6.750000, 6.000000)" stroke="#FFFFFF" stroke-linecap="round" stroke-width="1.7">
                    <path d="M16.31005,5 C14.83735,2.03655 11.7793,0 8.2456,0 C4.71185,0 1.7227,2.03655 0.25,5" id="路径"></path>
                    <line x1="0.25" y1="1" x2="0.25" y2="5" id="路径"></line>
                    <line x1="3.64015" y1="5" x2="0.250065" y2="5" id="路径"></line>
                    <path d="M0.25,13 C1.7227,15.96345 4.78075,18 8.3145,18 C11.8482,18 14.83735,15.96345 16.31005,13" id="路径"></path>
                    <line x1="16.31005" y1="17" x2="16.31005" y2="13" id="路径"></line>
                    <line x1="12.9199" y1="13" x2="16.31" y2="13" id="路径"></line>
                    <path d="M9.89788388,7.92146071 L10.2238709,11.7472591 C10.2707598,12.2975499 9.86267203,12.7816596 9.31238132,12.8285485 C9.22324229,12.8361439 9.13348712,12.8317432 9.04551862,12.8154645 L5.54205638,12.1671413 C4.9989918,12.066646 4.64021847,11.5449377 4.74071374,11.0018731 C4.77753161,10.8029136 4.87383821,10.6198033 5.01691237,10.4767291 L8.19438762,7.29925385 C8.58491191,6.90872956 9.21807689,6.90872956 9.60860118,7.29925385 C9.77539418,7.46604685 9.87785761,7.68643144 9.89788388,7.92146071 Z" id="矩形" stroke-linejoin="round" transform="translate(7.003848, 9.416247) rotate(-45.000000) translate(-7.003848, -9.416247) "></path>
                </g>
            </g>
        </g>
    </g>
</svg>