<?xml version="1.0" encoding="UTF-8"?>
<svg width="31px" height="30px" viewBox="0 0 31 30" version="1.1" xmlns="http://www.w3.org/2000/svg" xmlns:xlink="http://www.w3.org/1999/xlink">
    <title>ico_quanjukaishi</title>
    <g id="页面-1" stroke="none" stroke-width="1" fill="none" fill-rule="evenodd">
        <g id="9-4图形编排说明和切图" transform="translate(-770.000000, -183.000000)">
            <g id="ico_quanjukaishi" transform="translate(770.500000, 183.000000)">
                <rect id="矩形" x="0" y="0" width="30" height="30"></rect>
                <circle id="椭圆形备份" fill="#20C2CC" cx="15" cy="15" r="15"></circle>
                <g id="quanju-2" transform="translate(6.000000, 6.000000)" fill="#FFFFFF" fill-rule="nonzero" stroke="#FFFFFF" stroke-width="0.5">
                    <path d="M1.35338346,1.7638191 C1.35338346,1.53768844 1.53383459,1.35678392 1.7593985,1.35678392 L4.59980353,1.35678392 C4.97446906,1.35678392 5.27819549,1.05305749 5.27819549,0.67839196 C5.27819549,0.303726426 4.97446906,5.97308873e-16 4.59980353,0 L1.7593985,0 L1.7593985,0 C0.812030075,0 0,0.768844221 0,1.7638191 L0,4.56953943 C-9.56825649e-16,4.94326595 0.302965207,5.24623116 0.676691729,5.24623116 C1.05041825,5.24623116 1.35338346,4.94326595 1.35338346,4.56953943 L1.35338346,1.7638191 L1.35338346,1.7638191 Z M1.35338346,16.2361809 L1.35338346,13.4304606 C1.35338346,13.0567341 1.05041825,12.7537688 0.676691729,12.7537688 C0.302965207,12.7537688 8.42410121e-16,13.0567341 8.8817842e-16,13.4304606 L8.8817842e-16,16.2361809 L8.8817842e-16,16.2361809 C8.8817842e-16,17.1859296 0.766917293,18 1.7593985,18 L4.59980353,18 C4.97446906,18 5.27819549,17.6962736 5.27819549,17.321608 C5.27819549,16.9469425 4.97446906,16.6432161 4.59980353,16.6432161 L1.7593985,16.6432161 L1.7593985,16.6432161 C1.57894737,16.6432161 1.35338346,16.4623116 1.35338346,16.2361809 Z M16.6466165,16.2361809 C16.6466165,16.4623116 16.4661654,16.6432161 16.2406015,16.6432161 L13.4001965,16.6432161 C13.0255309,16.6432161 12.7218045,16.9469425 12.7218045,17.321608 C12.7218045,17.6962736 13.0255309,18 13.4001965,18 L16.2406015,18 L16.2406015,18 C17.1879699,18 18,17.2311558 18,16.2361809 L18,13.4304606 C18,13.0567341 17.6970348,12.7537688 17.3233083,12.7537688 C16.9495817,12.7537688 16.6466165,13.0567341 16.6466165,13.4304606 L16.6466165,16.2361809 L16.6466165,16.2361809 Z M16.2406015,0 L13.4001965,0 C13.0255309,-4.21973605e-17 12.7218045,0.303726426 12.7218045,0.67839196 C12.7218045,1.05305749 13.0255309,1.35678392 13.4001965,1.35678392 L16.2406015,1.35678392 L16.2406015,1.35678392 C16.4661654,1.35678392 16.6466165,1.53768844 16.6466165,1.7638191 L16.6466165,4.56953943 C16.6466165,4.94326595 16.9495817,5.24623116 17.3233083,5.24623116 C17.6970348,5.24623116 18,4.94326595 18,4.56953943 L18,1.7638191 L18,1.7638191 C18,0.768844221 17.1879699,0 16.2406015,0 Z" id="形状"></path>
                </g>
                <path d="M16.6478839,13.9214607 L16.9738709,17.7472591 C17.0207598,18.2975499 16.612672,18.7816596 16.0623813,18.8285485 C15.9732423,18.8361439 15.8834871,18.8317432 15.7955186,18.8154645 L12.2920564,18.1671413 C11.7489918,18.066646 11.3902185,17.5449377 11.4907137,17.0018731 C11.5275316,16.8029136 11.6238382,16.6198033 11.7669124,16.4767291 L14.9443876,13.2992539 C15.3349119,12.9087296 15.9680769,12.9087296 16.3586012,13.2992539 C16.5253942,13.4660469 16.6278576,13.6864314 16.6478839,13.9214607 Z" id="矩形" stroke="#FFFFFF" stroke-width="1.7" stroke-linecap="round" stroke-linejoin="round" transform="translate(13.753848, 15.416247) rotate(-45.000000) translate(-13.753848, -15.416247) "></path>
            </g>
        </g>
    </g>
</svg>