<?xml version="1.0" encoding="UTF-8"?>
<svg width="31px" height="30px" viewBox="0 0 31 30" version="1.1" xmlns="http://www.w3.org/2000/svg" xmlns:xlink="http://www.w3.org/1999/xlink">
    <title>ico_juece</title>
    <g id="页面-1" stroke="none" stroke-width="1" fill="none" fill-rule="evenodd">
        <g id="9-4图形编排说明和切图" transform="translate(-1104.000000, -183.000000)">
            <g id="ico_juece" transform="translate(1104.833333, 183.000000)">
                <rect id="矩形" x="0" y="0" width="30" height="30"></rect>
                <circle id="椭圆形备份" fill="#552CF6" cx="15" cy="15" r="15"></circle>
                <g id="liuchengfenzhi" transform="translate(14.991052, 15.068185) rotate(-270.000000) translate(-14.991052, -15.068185) translate(6.060835, 6.568185)" fill="#FFFFFF" fill-rule="nonzero" stroke="#FFFFFF" stroke-width="0.2">
                    <path d="M14.178388,3.41423014e-14 C14.2230985,3.41423014e-14 14.2662673,0.0145637593 14.3017274,0.0412639846 L17.7714203,2.6425132 C17.8272712,2.68426126 17.8604349,2.75178406 17.8604349,2.8237511 C17.8604349,2.89571813 17.8272712,2.96324094 17.7714203,3.00498899 L14.3024983,5.60623821 C14.2378421,5.65524634 14.1524506,5.66201939 14.0815115,5.62376636 C14.0105725,5.58551333 13.9660916,5.50870817 13.9663983,5.42500032 L13.9656274,3.64093981 L9.66570587,3.64093981 C9.54236642,3.64093981 9.40823476,3.78253192 9.38048339,3.99937011 L9.37508728,4.08432537 L9.37508728,12.9067271 C9.37508728,13.1413654 9.49457237,13.3096578 9.6186827,13.3436399 L9.66493499,13.3501127 L13.9663983,13.3501127 L13.9663983,11.5741431 C13.9663008,11.4907191 14.0106728,11.4142471 14.0813369,11.3760547 C14.152001,11.3378624 14.2370827,11.3443675 14.3017274,11.3929052 L17.7714203,13.9941545 C17.8272712,14.0359025 17.8604349,14.1034253 17.8604349,14.1753923 C17.8604349,14.2473594 17.8272712,14.3148822 17.7714203,14.3566302 L14.3024983,16.9578795 C14.2378421,17.0068876 14.1524506,17.0136606 14.0815115,16.9754076 C14.0105725,16.9371546 13.9660916,16.8603494 13.9663983,16.7766416 L13.9656274,14.9683081 L9.66570587,14.9683081 C8.67359417,14.9683081 7.89732651,14.0993372 7.83719851,13.0394191 L7.83334416,12.9067271 L7.83257329,9.30462398 L4.49455722,9.30462398 C4.11909763,10.4196628 3.03286036,11.0886006 1.92232179,10.8886846 C0.811783223,10.6887685 -2.84217094e-14,9.67815424 -2.84217094e-14,8.49552623 C-2.84217094e-14,7.31289823 0.811783223,6.30228399 1.92232179,6.10236791 C3.03286036,5.90245183 4.11909763,6.57138968 4.49455722,7.68642849 L7.83257329,7.68642849 L7.83257329,4.08432537 C7.83257329,3.01065267 8.56952649,2.09879952 9.54313729,2.02759893 L9.66493499,2.02274435 L13.9648566,2.02274435 L13.9663983,0.222501871 C13.9663983,0.0995190216 14.0612155,3.41423014e-14 14.178388,3.41423014e-14 Z" id="路径"></path>
                </g>
            </g>
        </g>
    </g>
</svg>