<?xml version="1.0" encoding="UTF-8"?>
<svg width="32px" height="32px" viewBox="0 0 32 32" version="1.1" xmlns="http://www.w3.org/2000/svg" xmlns:xlink="http://www.w3.org/1999/xlink">
    <title>ico_start</title>
    <g id="页面-1" stroke="none" stroke-width="1" fill="none" fill-rule="evenodd">
        <g id="9-4图形编排说明和切图" transform="translate(-268.000000, -182.000000)">
            <g id="ico_start" transform="translate(269.000000, 183.000000)">
                <rect id="矩形" x="0" y="0" width="30" height="30"></rect>
                <g id="编组-6" fill="#FF7D00" fill-rule="nonzero">
                    <g id="结束备份">
                        <rect id="矩形" opacity="0" x="0" y="0" width="30" height="30"></rect>
                        <path d="M29.7525307,15.00375 C29.7604858,11.0877065 28.2083785,7.32975483 25.4393119,4.56068814 C22.6702452,1.79162145 18.9122935,0.239514161 14.99625,0.247469336 C11.0834075,0.241188553 7.32921612,1.79373967 4.56375,4.561875 C1.79209346,7.32897383 0.238566479,11.0872674 0.247288301,15.00375 C0.226453269,18.9224204 1.7755043,22.6863308 4.54875,25.455 C7.31535961,28.2274352 11.0777433,29.775341 14.994375,29.7527492 C23.11875,29.67 29.7525307,23.124375 29.7525307,15.00375 Z M1.97985143,15.00375 C1.97801013,11.5503266 3.3484826,8.23766537 5.78971869,5.79502263 C8.23095479,3.35237989 11.542826,1.98 14.99625,1.98 C22.231875,1.98 28.100625,7.843125 28.100625,15.00375 C28.100625,22.153125 22.231875,28.0238812 14.99625,28.0238812 C11.5387319,28.0392988 8.21838602,26.6724256 5.77387897,24.2272143 C3.32937192,21.782003 1.96345523,18.4612635 1.97985143,15.00375 L1.97985143,15.00375 Z" id="形状" stroke="#FF7D00" stroke-width="0.535714286"></path>
                    </g>
                    <path d="M13.129813,9.5184071 C12.8366302,9.30527841 12.4486553,9.27467997 12.1256874,9.43921466 C11.8027194,9.60374934 11.5994366,9.93558723 11.5994366,10.298051 L11.5994366,20.5307564 C11.5997484,20.8930467 11.8032207,21.2245533 12.1261165,21.3888479 C12.4490123,21.5531425 12.8367704,21.5224635 13.129813,21.3094365 L20.1649184,16.1930838 C20.4144784,16.0117569 20.5621526,15.7219195 20.5621526,15.41344 C20.5621526,15.1049604 20.4144784,14.815123 20.1649184,14.6337961 L13.129813,9.5184071 Z" id="路径"></path>
                </g>
            </g>
        </g>
    </g>
</svg>