<?xml version="1.0" encoding="UTF-8"?>
<svg width="31px" height="30px" viewBox="0 0 31 30" version="1.1" xmlns="http://www.w3.org/2000/svg" xmlns:xlink="http://www.w3.org/1999/xlink">
    <title>ico_quanjujieshu</title>
    <g id="页面-1" stroke="none" stroke-width="1" fill="none" fill-rule="evenodd">
        <g id="9-4图形编排说明和切图" transform="translate(-854.000000, -183.000000)">
            <g id="ico_quanjujieshu" transform="translate(854.083333, 183.000000)">
                <rect id="矩形" x="0" y="0" width="30" height="30"></rect>
                <circle id="椭圆形备份" fill="#20C2CC" cx="15" cy="15" r="15"></circle>
                <g id="quanju-2" transform="translate(6.000000, 6.000000)" fill="#FFFFFF" fill-rule="nonzero" stroke="#FFFFFF" stroke-width="0.5">
                    <path d="M1.35338346,1.7638191 C1.35338346,1.53768844 1.53383459,1.35678392 1.7593985,1.35678392 L4.59980353,1.35678392 C4.97446906,1.35678392 5.27819549,1.05305749 5.27819549,0.67839196 C5.27819549,0.303726426 4.97446906,5.97308873e-16 4.59980353,0 L1.7593985,0 L1.7593985,0 C0.812030075,0 0,0.768844221 0,1.7638191 L0,4.56953943 C-9.56825649e-16,4.94326595 0.302965207,5.24623116 0.676691729,5.24623116 C1.05041825,5.24623116 1.35338346,4.94326595 1.35338346,4.56953943 L1.35338346,1.7638191 L1.35338346,1.7638191 Z M1.35338346,16.2361809 L1.35338346,13.4304606 C1.35338346,13.0567341 1.05041825,12.7537688 0.676691729,12.7537688 C0.302965207,12.7537688 8.42410121e-16,13.0567341 8.8817842e-16,13.4304606 L8.8817842e-16,16.2361809 L8.8817842e-16,16.2361809 C8.8817842e-16,17.1859296 0.766917293,18 1.7593985,18 L4.59980353,18 C4.97446906,18 5.27819549,17.6962736 5.27819549,17.321608 C5.27819549,16.9469425 4.97446906,16.6432161 4.59980353,16.6432161 L1.7593985,16.6432161 L1.7593985,16.6432161 C1.57894737,16.6432161 1.35338346,16.4623116 1.35338346,16.2361809 Z M16.6466165,16.2361809 C16.6466165,16.4623116 16.4661654,16.6432161 16.2406015,16.6432161 L13.4001965,16.6432161 C13.0255309,16.6432161 12.7218045,16.9469425 12.7218045,17.321608 C12.7218045,17.6962736 13.0255309,18 13.4001965,18 L16.2406015,18 L16.2406015,18 C17.1879699,18 18,17.2311558 18,16.2361809 L18,13.4304606 C18,13.0567341 17.6970348,12.7537688 17.3233083,12.7537688 C16.9495817,12.7537688 16.6466165,13.0567341 16.6466165,13.4304606 L16.6466165,16.2361809 L16.6466165,16.2361809 Z M16.2406015,0 L13.4001965,0 C13.0255309,-4.21973605e-17 12.7218045,0.303726426 12.7218045,0.67839196 C12.7218045,1.05305749 13.0255309,1.35678392 13.4001965,1.35678392 L16.2406015,1.35678392 L16.2406015,1.35678392 C16.4661654,1.35678392 16.6466165,1.53768844 16.6466165,1.7638191 L16.6466165,4.56953943 C16.6466165,4.94326595 16.9495817,5.24623116 17.3233083,5.24623116 C17.6970348,5.24623116 18,4.94326595 18,4.56953943 L18,1.7638191 L18,1.7638191 C18,0.768844221 17.1879699,0 16.2406015,0 Z" id="形状"></path>
                </g>
                <rect id="矩形" stroke="#FFFFFF" stroke-width="1.7" stroke-linecap="round" stroke-linejoin="round" transform="translate(15.035534, 15.035550) rotate(-360.000000) translate(-15.035534, -15.035550) " x="12.5355339" y="12.53555" width="5" height="5" rx="1"></rect>
            </g>
        </g>
    </g>
</svg>