<?xml version="1.0" encoding="UTF-8"?>
<svg width="30px" height="30px" viewBox="0 0 30 30" version="1.1" xmlns="http://www.w3.org/2000/svg" xmlns:xlink="http://www.w3.org/1999/xlink">
    <title>ico_zujian</title>
    <g id="页面-1" stroke="none" stroke-width="1" fill="none" fill-rule="evenodd">
        <g id="9-4图形编排说明和切图" transform="translate(-1272.000000, -183.000000)">
            <g id="ico_zujian" transform="translate(1272.000000, 183.000000)">
                <rect id="矩形" x="0" y="0" width="30" height="30"></rect>
                <g id="fuwuqi-fill" transform="translate(2.000000, 2.000000)" fill="#0072FF" fill-rule="nonzero">
                    <path d="M1.44444446,0 L24.5555555,0 C25.3533002,0 26,0.646699811 26,1.44444446 L26,11.5555555 L0,11.5555555 L0,1.44444446 C0,0.646699811 0.646699811,0 1.44444446,0 Z M0,14.4444445 L26,14.4444445 L26,24.5555555 C26,25.3533002 25.3533002,26 24.5555555,26 L1.44444446,26 C0.646699811,26 0,25.3533002 0,24.5555555 L0,14.4444445 L0,14.4444445 Z M5.77777779,18.7777778 L5.77777779,21.6666667 L10.1111111,21.6666667 L10.1111111,18.7777778 L5.77777779,18.7777778 L5.77777779,18.7777778 Z M5.77777779,4.33333333 L5.77777779,7.22222221 L10.1111111,7.22222221 L10.1111111,4.33333333 L5.77777779,4.33333333 Z" id="形状"></path>
                </g>
            </g>
        </g>
    </g>
</svg>