<?xml version="1.0" encoding="UTF-8"?>
<svg width="31px" height="30px" viewBox="0 0 31 30" version="1.1" xmlns="http://www.w3.org/2000/svg" xmlns:xlink="http://www.w3.org/1999/xlink">
    <title>ico_bendikaishi</title>
    <g id="页面-1" stroke="none" stroke-width="1" fill="none" fill-rule="evenodd">
        <g id="9-4图形编排说明和切图" transform="translate(-603.000000, -183.000000)">
            <g id="ico_bendikaishi" transform="translate(603.333333, 183.000000)">
                <rect id="矩形" x="0" y="0" width="30" height="30"></rect>
                <circle id="椭圆形" fill="#3FC9AB" cx="15" cy="15" r="15"></circle>
                <g id="本地_local-pin" transform="translate(6.000000, 6.000000)">
                    <rect id="矩形" fill-opacity="0.01" fill="#FFFFFF" fill-rule="nonzero" x="0" y="0" width="18" height="18"></rect>
                    <path d="M9,7.5 C10.6568625,7.5 12,6.1568625 12,4.5 C12,2.843145 10.6568625,1.5 9,1.5 C7.3431375,1.5 6,2.843145 6,4.5 C6,6.1568625 7.3431375,7.5 9,7.5 Z" id="路径" stroke="#FFFFFF" stroke-width="2" stroke-linejoin="round"></path>
                    <line x1="9" y1="7.5" x2="9" y2="12" id="路径" stroke="#FFFFFF" stroke-width="2" stroke-linecap="round" stroke-linejoin="round"></line>
                    <polyline id="路径" stroke="#FFFFFF" stroke-width="2" stroke-linecap="round" stroke-linejoin="round" points="5.22297394 12 3.72297394 12 0.722973936 16.5 17.3229429 16.5 14.3229429 12 12.8229429 12"></polyline>
                </g>
            </g>
        </g>
    </g>
</svg>