<?xml version="1.0" encoding="UTF-8"?>
<svg width="31px" height="30px" viewBox="0 0 31 30" version="1.1" xmlns="http://www.w3.org/2000/svg" xmlns:xlink="http://www.w3.org/1999/xlink">
    <title>ico_hebing</title>
    <g id="页面-1" stroke="none" stroke-width="1" fill="none" fill-rule="evenodd">
        <g id="9-4图形编排说明和切图" transform="translate(-436.000000, -183.000000)">
            <g id="ico_hebing" transform="translate(436.166667, 183.000000)">
                <rect id="矩形" x="0" y="0" width="30" height="30"></rect>
                <g id="编组-7">
                    <circle id="椭圆形" fill="#2CADF6" cx="15" cy="15" r="15"></circle>
                    <g id="编组-3" transform="translate(7.000000, 7.000000)" stroke="#FFFFFF" stroke-linecap="round" stroke-linejoin="round" stroke-width="2">
                        <path d="M5.8245614,2.07017544 L5.8245614,6.49122807 L1.40350877,6.49122807 C0.99656193,6.49122807 0.666666667,6.82111228 0.666666667,7.22807018 L0.666666667,14.5964912 C0.666666667,15.0034491 0.99656193,15.3333333 1.40350877,15.3333333 L8.77192982,15.3333333 C9.17888772,15.3333333 9.50877193,15.0034491 9.50877193,14.5964912 L9.50877193,10.1754386 L13.9298246,10.1754386 C14.3367825,10.1754386 14.6666667,9.84555439 14.6666667,9.43859649 L14.6666667,2.07017544 C14.6666667,1.6632286 14.3367825,1.33333333 13.9298246,1.33333333 L6.56140351,1.33333333 C6.15444561,1.33333333 5.8245614,1.6632286 5.8245614,2.07017544 Z" id="路径"></path>
                    </g>
                </g>
            </g>
        </g>
    </g>
</svg>