<?xml version="1.0" encoding="UTF-8"?>
<svg width="31px" height="30px" viewBox="0 0 31 30" version="1.1" xmlns="http://www.w3.org/2000/svg" xmlns:xlink="http://www.w3.org/1999/xlink">
    <title>ico_xunhuanjieshu</title>
    <g id="页面-1" stroke="none" stroke-width="1" fill="none" fill-rule="evenodd">
        <g id="9-4图形编排说明和切图" transform="translate(-1021.000000, -183.000000)">
            <g id="ico_xunhuanjieshu" transform="translate(1021.250000, 183.000000)">
                <rect id="矩形" x="0" y="0" width="30" height="30"></rect>
                <circle id="椭圆形备份" fill="#436CFF" cx="15" cy="15" r="15"></circle>
                <g id="刷新_refresh-one" transform="translate(6.750000, 6.000000)" stroke="#FFFFFF" stroke-linecap="round" stroke-width="1.7">
                    <rect id="矩形" stroke-linejoin="round" transform="translate(8.285534, 9.035550) rotate(-360.000000) translate(-8.285534, -9.035550) " x="5.78553391" y="6.53555" width="5" height="5" rx="1"></rect>
                    <path d="M16.31005,5 C14.83735,2.03655 11.7793,0 8.2456,0 C4.71185,0 1.7227,2.03655 0.25,5" id="路径"></path>
                    <line x1="0.25" y1="1" x2="0.25" y2="5" id="路径"></line>
                    <line x1="3.64015" y1="5" x2="0.250065" y2="5" id="路径"></line>
                    <path d="M0.25,13 C1.7227,15.96345 4.78075,18 8.3145,18 C11.8482,18 14.83735,15.96345 16.31005,13" id="路径"></path>
                    <line x1="16.31005" y1="17" x2="16.31005" y2="13" id="路径"></line>
                    <line x1="12.9199" y1="13" x2="16.31" y2="13" id="路径"></line>
                </g>
            </g>
        </g>
    </g>
</svg>