<?xml version="1.0" encoding="UTF-8"?>
<svg width="31px" height="30px" viewBox="0 0 31 30" version="1.1" xmlns="http://www.w3.org/2000/svg" xmlns:xlink="http://www.w3.org/1999/xlink">
    <title>ico_bendijieshu</title>
    <g id="页面-1" stroke="none" stroke-width="1" fill="none" fill-rule="evenodd">
        <g id="9-4图形编排说明和切图" transform="translate(-686.000000, -183.000000)">
            <g id="ico_bendijieshu" transform="translate(686.916667, 183.000000)">
                <rect id="矩形" x="0" y="0" width="30" height="30"></rect>
                <circle id="椭圆形备份" fill="#3FC9AB" cx="15" cy="15" r="15"></circle>
                <g id="本地_local-pin备份" transform="translate(6.000000, 6.000000)">
                    <rect id="矩形" fill-opacity="0.01" fill="#FFFFFF" fill-rule="nonzero" x="0" y="0" width="18" height="18"></rect>
                    <line x1="9" y1="7.5" x2="9" y2="12" id="路径" stroke="#FFFFFF" stroke-width="2" stroke-linecap="round" stroke-linejoin="round"></line>
                    <path d="M6.94082503,0.532898541 L10.940825,0.532898541 C11.4931098,0.532898541 11.940825,0.980613791 11.940825,1.53289854 L11.940825,5.53289854 C11.940825,6.08518329 11.4931098,6.53289854 10.940825,6.53289854 L6.94082503,6.53289854 C6.38854028,6.53289854 5.94082503,6.08518329 5.94082503,5.53289854 L5.94082503,1.53289854 C5.94082503,0.980613791 6.38854028,0.532898541 6.94082503,0.532898541 Z" id="矩形" stroke="#FFFFFF" stroke-width="1.7" stroke-linecap="round" stroke-linejoin="round" transform="translate(8.940825, 3.532899) rotate(-360.000000) translate(-8.940825, -3.532899) "></path>
                    <polyline id="路径" stroke="#FFFFFF" stroke-width="2" stroke-linecap="round" stroke-linejoin="round" points="5.22297394 12 3.72297394 12 0.722973936 16.5 17.3229429 16.5 14.3229429 12 12.8229429 12"></polyline>
                </g>
            </g>
        </g>
    </g>
</svg>