<?xml version="1.0" encoding="UTF-8"?>
<svg width="31px" height="31px" viewBox="0 0 31 31" version="1.1" xmlns="http://www.w3.org/2000/svg" xmlns:xlink="http://www.w3.org/1999/xlink">
    <title>ico_end</title>
    <g id="页面-1" stroke="none" stroke-width="1" fill="none" fill-rule="evenodd">
        <g id="9-4图形编排说明和切图" transform="translate(-352.000000, -182.000000)">
            <g id="ico_end" transform="translate(353.000000, 183.000000)">
                <rect id="矩形" x="0" y="0" width="30" height="30"></rect>
                <g id="编组-4备份">
                    <rect id="矩形" x="0" y="0" width="30" height="30"></rect>
                    <g id="结束" transform="translate(0.000000, 0.000000)" fill="#00B42A" fill-rule="nonzero" stroke="#00B42A" stroke-width="0.535714286">
                        <path d="M19.6316692,18.5700611 C19.6316692,19.0856861 19.2097942,19.5075611 18.6941692,19.5075611 L10.8135442,19.5075611 C10.2957772,19.5075611 9.87604419,19.087828 9.87604419,18.5700611 L9.87604419,10.9350611 C9.87604419,10.4172941 10.2957772,9.99756109 10.8135442,9.99756109 L18.6941692,9.99756109 C19.2097942,9.99756109 19.6316692,10.4194361 19.6316692,10.9350611 L19.6316692,18.5700611 L19.6316692,18.5700611 Z M29.5054499,14.7563111 C29.513405,10.8402676 27.9612977,7.08231593 25.192231,4.31324924 C22.4231644,1.54418255 18.6652127,-0.00792474472 14.7491692,3.04298555e-05 C10.8363267,-0.00625035286 7.08213531,1.54630077 4.31666919,4.31443609 C1.54501265,7.08153492 -0.00851433465,10.8398285 0.00020748811,14.7563111 C-0.0206275446,18.6749815 1.52842349,22.4388919 4.30166919,25.2075611 C7.0682788,27.9799963 10.8306625,29.5279021 14.7472942,29.5053103 C22.8716692,29.4225611 29.5054499,22.8769361 29.5054499,14.7563111 Z M1.73277062,14.7563111 C1.73092931,11.3028877 3.10140179,7.99022646 5.54263788,5.54758372 C7.98387397,3.10494098 11.2957452,1.73256109 14.7491692,1.73256109 C21.9847942,1.73256109 27.8535442,7.59568609 27.8535442,14.7563111 C27.8535442,21.9056861 21.9847942,27.7764423 14.7491692,27.7764423 C11.2916511,27.7918599 7.97130521,26.4249867 5.52679815,23.9797754 C3.0822911,21.5345641 1.71637442,18.2138246 1.73277062,14.7563111 L1.73277062,14.7563111 Z" id="形状"></path>
                    </g>
                </g>
            </g>
        </g>
    </g>
</svg>