<?xml version="1.0" encoding="UTF-8"?>
<svg width="31px" height="30px" viewBox="0 0 31 30" version="1.1" xmlns="http://www.w3.org/2000/svg" xmlns:xlink="http://www.w3.org/1999/xlink">
    <title>ico_fenpai</title>
    <g id="页面-1" stroke="none" stroke-width="1" fill="none" fill-rule="evenodd">
        <g id="9-4图形编排说明和切图" transform="translate(-519.000000, -183.000000)">
            <g id="ico_fenpai" transform="translate(519.750000, 183.000000)">
                <circle id="椭圆形" fill="#2CADF6" cx="15" cy="15" r="15"></circle>
                <path d="M12.9772458,16.3510919 L16.3255998,19.7084955 L18.669,19.708 L18.6694476,17.6813839 C18.6651742,17.4241416 18.7990946,17.1875638 19.014783,17.0574394 L19.1120626,17.0084394 C19.3499617,16.9104809 19.6191122,16.9487131 19.8190411,17.1019525 L19.9001939,17.174606 L22.6874724,19.9528348 C22.9411835,20.2071611 22.9665546,20.6031168 22.7635857,20.885769 L22.6874724,20.9754403 L19.9001939,23.7536691 C19.6933559,23.956467 19.3855456,24.016452 19.1176937,23.90616 C18.8833234,23.8096546 18.7190278,23.599038 18.6788902,23.3538544 L18.6694476,23.2468912 L18.669,21.518 L15.9545659,21.5184466 C15.7140247,21.5198073 15.4828271,21.4253744 15.312044,21.255978 L11.6922018,17.6361359 C11.3373467,17.2812808 11.3373467,16.705947 11.6922018,16.3510919 C12.0470569,15.9962368 12.6223907,15.9962368 12.9772458,16.3510919 Z M6.90496055,15.1836928 C6.30165352,15.1836928 6,14.8820393 6,14.2787323 C6,13.6754252 6.30165352,13.3737717 6.90496055,13.3737717 L11.955,13.373 L15.312044,10.0163681 C15.4828271,9.84697171 15.7140247,9.75253886 15.9545659,9.75388509 L18.669,9.753 L18.6694476,7.72681796 C18.6651742,7.46957569 18.7990946,7.2329979 19.014783,7.10287341 L19.1120626,7.05387344 C19.3499617,6.95591498 19.6191122,6.99414714 19.8190411,7.14738652 L19.9001939,7.22004004 L22.6874724,9.99826891 C22.9411835,10.2525952 22.9665546,10.6485509 22.7635857,10.931203 L22.6874724,11.0208743 L19.9001939,13.7991032 C19.6933559,14.001901 19.3855456,14.061886 19.1176937,13.9515941 C18.8833234,13.8550886 18.7190278,13.644472 18.6788902,13.3992884 L18.6694476,13.2923253 L18.669,11.563 L16.3255998,11.5638506 L13.1577823,14.7413229 C13.0448475,15.0037893 12.8151179,15.149461 12.4685937,15.178338 L12.3347238,15.1837373 L12.3347238,15.1837373 L6.90496055,15.1836928 Z" id="形状结合" fill="#FFFFFF" fill-rule="nonzero"></path>
            </g>
        </g>
    </g>
</svg>